<?xml version="1.0" encoding="UTF-8"?>
<svg width="1200pt" height="1200pt" version="1.1" viewBox="0 0 1200 1200" xmlns="http://www.w3.org/2000/svg">
 <g fill-rule="evenodd">
  <path d="m481.63 1075.5c-11.316 0-22.621-4.2773-31.262-12.859l-433.67-430.7c-17.27-17.137-17.27-44.949 0-62.086l433.67-430.7c17.277-17.16 45.246-17.16 62.527 0 17.266 17.137 17.266 44.949 0 62.086l-402.41 399.65 402.41 399.66c17.266 17.137 17.266 44.949 0 62.086-8.6406 8.582-19.961 12.859-31.266 12.859"/>
  <path d="m1145.3 644.81h-1097.4c-24.414 0-44.211-19.66-44.211-43.91 0-24.234 19.797-43.906 44.211-43.906h1097.4c24.418 0 44.211 19.672 44.211 43.906 0 24.25-19.793 43.91-44.211 43.91"/>
 </g>
</svg>
