<?xml version="1.0" encoding="UTF-8"?>
<svg width="1200pt" height="1200pt" version="1.1" viewBox="0 0 1200 1200" xmlns="http://www.w3.org/2000/svg">
 <path d="m727.95 600 445.57-445.57c35.324-35.324 35.324-92.625 0-127.95-35.324-35.324-92.625-35.324-127.95 0l-445.57 445.57-445.57-445.57c-35.324-35.324-92.625-35.324-127.95 0-35.324 35.324-35.324 92.625 0 127.95l445.57 445.57-445.57 445.57c-35.324 35.324-35.324 92.625 0 127.95 17.625 17.699 40.801 26.477 63.977 26.477s46.273-8.8516 63.977-26.477l445.57-445.57 445.57 445.57c17.699 17.699 40.801 26.477 63.977 26.477 23.176 0 46.273-8.8516 63.977-26.477 35.324-35.324 35.324-92.625 0-127.95l-445.57-445.57" fill-rule="evenodd"/>
</svg>
