<?xml version="1.0" encoding="UTF-8"?>
<svg width="1200pt" height="1200pt" version="1.1" viewBox="0 0 1200 1200" xmlns="http://www.w3.org/2000/svg">
 <g>
  <path d="m600.04 1122.7-325.61-304.91c-15.113-14.137-15.898-37.875-1.7266-53.023 14.102-15.113 37.914-15.898 53.023-1.7266l274.39 256.95 274.24-256.5c15.074-14.102 38.812-13.352 53.023 1.7617 14.137 15.113 13.352 38.852-1.7617 53.023z"/>
  <path d="m599.4 1108.3c-20.699 0-37.5-16.762-37.5-37.5l-0.14844-764.89c0-20.699 16.762-37.5 37.5-37.5 20.699 0 37.5 16.762 37.5 37.5l0.14844 764.85c0 20.738-16.762 37.535-37.5 37.535z"/>
  <path d="m224.85 152.44c-20.699 0-37.5-16.801-37.5-37.5s16.801-37.5 37.5-37.5l750.3-0.14844c20.699 0 37.5 16.801 37.5 37.5 0 20.699-16.801 37.5-37.5 37.5z"/>
 </g>
</svg>
