<?xml version="1.0" encoding="UTF-8"?>
<svg width="1200pt" height="1200pt" version="1.1" viewBox="0 0 1200 1200" xmlns="http://www.w3.org/2000/svg">
 <g>
  <path d="m599.98 270.81 205.06 192.02c9.5156 8.9023 10.012 23.852 1.0859 33.395-8.8789 9.5156-23.875 10.012-33.395 1.0859l-172.8-161.82-172.7 161.54c-9.4922 8.8789-24.441 8.4062-33.395-1.1094-8.9023-9.5156-8.4062-24.465 1.1094-33.395z"/>
  <path d="m600.38 279.91c13.035 0 23.617 10.555 23.617 23.617l0.09375 481.7c0 13.035-10.555 23.617-23.617 23.617-13.035 0-23.617-10.555-23.617-23.617l-0.09375-481.67c0.003907-13.062 10.559-23.641 23.617-23.641z"/>
  <path d="m836.25 881.86c13.035 0 23.617 10.578 23.617 23.617 0 13.035-10.578 23.617-23.617 23.617l-472.51 0.09375c-13.035 0-23.617-10.578-23.617-23.617 0-13.035 10.578-23.617 23.617-23.617z"/>
 </g>
</svg>
